<svg width="21" height="24" viewBox="0 0 21 24" fill="none" xmlns="http://www.w3.org/2000/svg">
<path d="M3.85958 14.1568H16.3799C17.3453 14.1568 17.8279 14.1568 18.2121 13.9532C18.5507 13.7737 18.8351 13.4857 19.03 13.125C19.2514 12.7153 19.3046 12.1725 19.4113 11.087L19.9689 5.40933C20.0015 5.07776 20.0177 4.91198 19.9706 4.78367C19.9292 4.67097 19.8553 4.57749 19.7608 4.51851C19.6533 4.45135 19.5059 4.45135 19.211 4.45135H3.383M1 1.21622H2.18995C2.44217 1.21622 2.56828 1.21622 2.66695 1.27048C2.75381 1.31826 2.82579 1.39476 2.87336 1.48987C2.92738 1.5979 2.93524 1.7403 2.95098 2.02511L3.81476 17.6614C3.8305 17.9462 3.83836 18.0886 3.89239 18.1966C3.93995 18.2917 4.01193 18.3683 4.09879 18.416C4.19746 18.4703 4.32357 18.4703 4.57579 18.4703H17.2035M6.24232 22.2446H6.25185M14.8207 22.2446H14.8302M6.71889 22.2446C6.71889 22.5423 6.50552 22.7838 6.24232 22.7838C5.97911 22.7838 5.76574 22.5423 5.76574 22.2446C5.76574 21.9469 5.97911 21.7054 6.24232 21.7054C6.50552 21.7054 6.71889 21.9469 6.71889 22.2446ZM15.2972 22.2446C15.2972 22.5423 15.0838 22.7838 14.8207 22.7838C14.5575 22.7838 14.3441 22.5423 14.3441 22.2446C14.3441 21.9469 14.5575 21.7054 14.8207 21.7054C15.0838 21.7054 15.2972 21.9469 15.2972 22.2446Z" stroke="#EFD246" stroke-width="1.5" stroke-linecap="round" stroke-linejoin="round"/>
</svg>
